<svg width="43" height="43" viewBox="0 0 43 43" fill="none" xmlns="http://www.w3.org/2000/svg">
<rect width="42" height="42" rx="5" fill="#112B5C"/>
<path d="M38.5 15.3562L41 19.3014L41.2973 35C41.1099 37.4207 40.7216 39.2212 40 39.5C39.5002 40.6663 37.7577 41.2776 34.5 41.5C34.4083 41.4944 34.3163 41.4888 34.224 41.4833C32.4531 41.4095 22.773 41.1246 18 41C17.3333 40.3425 14.5 38.5342 14.5 38.5342C14.5 38.5342 11.3333 36.0685 10.5 35.0822L13 34.0959C11.8333 33.1096 9.5 30.6438 9 30.1507C8.2 29.3616 6.83333 26.2055 6.5 24.726H8.5C8.16667 23.7397 7 22 6.5 20.7808C6.07364 19.7412 5.16667 17.1644 5 15.8493L6.5 15.3562C6.16667 14.5342 5.5 12.4959 5.5 10.9178V6.47945H11.5C13.5 6.47945 15.3333 7.46575 16 7.9589V5C16.6667 5.16438 18.6 5.69041 21 6.47945C23.4 7.26849 24.6667 8.45205 25 8.94521V6.47945C26.3333 7.30137 29.4 9.33973 31 10.9178C32.6 12.4959 34 14.2055 34.5 14.863L35 10.9178C35.5 11.5 37 13 38.5 15.3562Z" fill="#00D17E"/>
<path d="M41 19.3014L38.5 15.3562C37 13 35.5 11.5 35 10.9178L34.5 14.863C34 14.2055 32.6 12.4959 31 10.9178C29.4 9.33973 26.3333 7.30137 25 6.47945V8.94521C24.6667 8.45205 23.4 7.26849 21 6.47945C18.6 5.69041 16.6667 5.16438 16 5V7.9589C15.3333 7.46575 13.5 6.47945 11.5 6.47945C9.5 6.47945 6.66667 6.47945 5.5 6.47945C5.5 7.30137 5.5 9.33973 5.5 10.9178C5.5 12.4959 6.16667 14.5342 6.5 15.3562L5 15.8493C5.16667 17.1644 6.07364 19.7412 6.5 20.7808C7 22 8.16667 23.7397 8.5 24.726H6.5C6.83333 26.2055 8.2 29.3616 9 30.1507C9.5 30.6438 11.8333 33.1096 13 34.0959L10.5 35.0822C11.3333 36.0685 14.5 38.5342 14.5 38.5342C14.5 38.5342 17.3333 40.3425 18 41M41 19.3014C41 19.3014 41.1742 28.5 41.2973 35M41 19.3014L41.2973 35M18 41C18 41 27.25 41.0558 34.5 41.5M18 41C23.3333 41.1392 34.7936 41.4786 34.5 41.5M40 39.5C39.5 39.5 39 39 39 39L37.5 37.6199M40 39.5C39.5002 40.6663 37.7577 41.2776 34.5 41.5M40 39.5C40.7216 39.2213 41.1099 37.4207 41.2973 35M17 17.8219H14.5V14.863M17 17.8219V14.863H14.5M17 17.8219L23 23.6164M17 17.8219L14.5 14.863M23 23.6164V18.5M23 23.6164L26.383 26.8836M23 18.5H22V17.0205H24V18.5H23ZM29.766 30.1507V23.6164M29.766 30.1507L26.383 26.8836M29.766 30.1507L33.633 33.8853M29.766 23.6164H28.9102M29.766 23.6164H31V21.5M28.9102 23.6164V21.5H31M28.9102 23.6164L31 21.5M26.383 26.8836H20M20 26.8836V28.1781M20 26.8836V25.7123H17M20 28.1781H17V25.7123M20 28.1781L17 25.7123M37.5 37.6199V30.1507M37.5 37.6199L33.633 33.8853M37.5 30.1507H36.5V28.1781H38.5V30.1507H37.5ZM33.633 33.8853L25 34.0959M25 34.0959V35.5H23V33.1096H25V34.0959Z" stroke="white" stroke-width="2"/>
</svg>
