<svg width="391" height="433" viewBox="0 0 391 433" fill="none" xmlns="http://www.w3.org/2000/svg">
<path d="M390.857 161.571C390.857 143.589 376.268 129 358.286 129H299V161.571H358.286V199H254V219H358.286V400.429H32.5714V219H202V199H32.5714V161.571H151.987L153 129H32.5714C14.5893 129 0 143.589 0 161.571V400.429C0 418.411 14.5893 433 32.5714 433H358.286C376.268 433 390.857 418.411 390.857 400.429V161.571Z" fill="#16CB88"/>
<path d="M64 175H52V187H64V175Z" fill="#16CB88"/>
<path d="M162 278C162 297.856 145.856 314 126 314C106.144 314 90 297.856 90 278C90 258.144 106.144 242 126 242C145.856 242 162 258.144 162 278Z" fill="#16CB88"/>
<path d="M332.286 299.571H256.286C253.3 299.571 250.857 297.129 250.857 294.143V283.286C250.857 280.3 253.3 277.857 256.286 277.857H332.286C335.271 277.857 337.714 280.3 337.714 283.286V294.143C337.714 297.129 335.271 299.571 332.286 299.571Z" fill="#16CB88"/>
<path d="M256.286 343H332.286C335.271 343 337.714 340.557 337.714 337.571V326.714C337.714 323.729 335.271 321.286 332.286 321.286H256.286C253.3 321.286 250.857 323.729 250.857 326.714V337.571C250.857 340.557 253.3 343 256.286 343Z" fill="#16CB88"/>
<path d="M256.286 386.429H332.286C335.271 386.429 337.714 383.986 337.714 381V370.143C337.714 367.157 335.271 364.714 332.286 364.714H256.286C253.3 364.714 250.857 367.157 250.857 370.143V381C250.857 383.986 253.3 386.429 256.286 386.429Z" fill="#16CB88"/>
<path d="M63 375.2C63 381.162 68.625 386 75.6 386H176.4C183.375 386 189 381.162 189 375.2V364.4C189 346.513 172.069 332 151.2 332C148.822 332 146.694 332.69 144.104 333.529C140.077 334.834 134.934 336.5 126 336.5C116.835 336.5 111.88 334.849 107.972 333.547C105.428 332.7 103.328 332 100.8 332C79.9312 332 63 346.513 63 364.4V375.2Z" fill="#16CB88"/>
<path d="M73 175H85V187H73V175Z" fill="#16CB88"/>
<path d="M106 175H94V187H106V175Z" fill="#16CB88"/>
<mask id="path-2-inside-1_14_16" fill="white">
<path fill-rule="evenodd" clip-rule="evenodd" d="M362.849 42.8912L362.844 42.8308C362.813 42.4403 362.777 42.0501 362.735 41.6603C362.707 41.3932 362.677 41.1263 362.644 40.8597C362.418 39.0157 362.083 37.1828 361.641 35.3717C360.928 32.444 357.33 31.4519 355.236 33.5853L330.025 57L309.952 54.0272L306.352 32.0193L325.071 12.9557L325.073 12.9529L330.025 7.91043C332.132 5.76413 331.117 2.10693 328.223 1.3742C326.258 0.878263 324.266 0.516568 322.263 0.28909C321.805 0.237027 321.346 0.192014 320.886 0.154019L320.828 0.149228C307.904 -0.902621 294.628 3.6062 284.741 13.6718C272.122 26.5238 268.648 45.1534 273.901 61.3967L262.233 73.2793C259.49 70.9998 257.61 67.6972 257.194 63.9109L255.448 48.2509C255.084 44.9847 252.686 42.3107 249.479 41.5953C242.133 39.9565 234.636 39.0868 227.109 39C219.396 39.0887 211.891 39.9582 204.536 41.5943C201.327 42.3081 198.926 44.9831 198.562 48.2509L196.818 63.8989C196.317 68.3767 193.72 72.3549 189.82 74.6174C185.903 76.9062 181.153 77.1802 177.021 75.3665L162.661 69.0571C159.674 67.7446 156.184 68.4602 153.954 70.8423C143.575 81.9297 135.845 95.2273 131.346 109.734C130.375 112.865 131.494 116.266 134.133 118.209L146.874 127.588C150.511 130.26 152.655 134.498 152.655 139.005C152.655 143.512 150.511 147.75 146.879 150.419L134.13 159.814C131.494 161.755 130.377 165.153 131.344 168.28C135.835 182.8 143.561 196.113 153.94 207.215C156.168 209.598 159.657 210.316 162.644 209.007L177.068 202.687C181.18 200.891 185.911 201.154 189.806 203.4C193.702 205.647 196.301 209.609 196.81 214.077L198.541 229.712C198.898 232.941 201.245 235.597 204.405 236.349C219.258 239.884 234.733 239.884 249.585 236.349C252.745 235.597 255.092 232.941 255.449 229.712L257.183 214.054C257.679 209.577 260.273 205.602 264.172 203.349C268.072 201.095 272.809 200.83 276.935 202.636L291.356 208.955C294.343 210.265 297.831 209.547 300.058 207.166C310.431 196.076 318.157 182.78 322.654 168.275C323.625 165.146 322.507 161.746 319.87 159.803L307.129 150.415C303.489 147.74 301.345 143.502 301.345 138.995C301.345 134.487 303.489 130.249 307.121 127.581L319.852 118.195C322.487 116.252 323.604 112.852 322.634 109.724C321.227 105.188 319.504 100.769 317.483 96.5C316.959 95.3926 316.414 94.2952 315.85 93.2084C328.013 93.6202 340.279 89.1659 349.572 79.7021C359.473 69.6184 363.898 56.0703 362.849 42.8912ZM300.495 77.3904L299.375 77.0101L259.172 117.953C256.013 113.128 251.798 109.057 246.856 106.067L287.555 64.6189L285.319 57.7043C281.328 45.363 284.062 31.4916 293.303 22.0805L293.304 22.0793C297.525 17.7816 302.566 14.8623 307.902 13.3134L293.527 27.9528L299.525 64.6138L333.968 69.7149L350.079 54.7512C348.667 60.8328 345.635 66.5839 341.01 71.2945C331.696 80.7796 318.326 83.4446 306.514 79.4339L303.407 78.3793L301.345 76.5547L300.495 77.3904ZM298.944 94.5768C301.811 99.1898 304.234 104.074 306.176 109.165L298.004 115.19C290.437 120.75 285.963 129.592 285.963 138.995C285.963 148.397 290.437 157.239 298.013 162.806L306.196 168.836C302.909 177.457 298.242 185.485 292.378 192.608L283.104 188.544C274.495 184.775 264.61 185.327 256.476 190.029C248.342 194.731 242.929 203.022 241.895 212.361L240.778 222.452C231.655 224.004 222.335 224.004 213.213 222.452L212.095 212.36C211.032 203.018 205.612 194.755 197.488 190.071C189.364 185.387 179.499 184.838 170.905 188.591L161.623 192.658C155.754 185.524 151.086 177.482 147.801 168.849L155.995 162.811C163.563 157.25 168.037 148.407 168.037 139.005C168.037 129.602 163.563 120.76 155.987 115.193L147.806 109.171C151.093 100.552 155.761 92.5256 161.626 85.4059L170.837 89.4532C179.48 93.2466 189.412 92.6737 197.559 87.9133C205.656 83.2157 211.06 74.9353 212.104 65.6071L213.221 55.5849C217.813 54.8403 222.455 54.4384 227.112 54.3836C231.626 54.4372 236.22 54.838 240.789 55.5816L241.905 65.6035C242.722 73.0338 246.249 79.5718 251.437 84.2749L234.705 101.314C232.21 100.805 229.627 100.538 226.981 100.538C205.744 100.538 188.527 117.758 188.527 139C188.527 160.241 205.744 177.462 226.981 177.462C248.219 177.462 265.435 160.241 265.435 139C265.435 135.838 265.054 132.764 264.334 129.824L298.944 94.5768ZM205.179 131.429C207.435 124.929 212.515 119.749 218.95 117.359L205.967 130.582C205.695 130.858 205.433 131.141 205.179 131.429ZM249.202 145.234C247.06 152.886 241.075 158.931 233.459 161.155C233.912 160.768 234.352 160.357 234.778 159.923L249.202 145.234ZM238.879 138.619L247.957 129.375C245.497 124.021 241.05 119.772 235.56 117.571L226.762 126.531C232.452 128.494 236.892 133.007 238.879 138.619ZM212.735 145.249C212.735 149.545 216.157 153.03 220.376 153.03C224.594 153.03 228.016 149.545 228.016 145.249C228.016 140.95 224.594 137.468 220.376 137.468C216.157 137.468 212.735 140.95 212.735 145.249Z"/>
</mask>
<path fill-rule="evenodd" clip-rule="evenodd" d="M362.849 42.8912L362.844 42.8308C362.813 42.4403 362.777 42.0501 362.735 41.6603C362.707 41.3932 362.677 41.1263 362.644 40.8597C362.418 39.0157 362.083 37.1828 361.641 35.3717C360.928 32.444 357.33 31.4519 355.236 33.5853L330.025 57L309.952 54.0272L306.352 32.0193L325.071 12.9557L325.073 12.9529L330.025 7.91043C332.132 5.76413 331.117 2.10693 328.223 1.3742C326.258 0.878263 324.266 0.516568 322.263 0.28909C321.805 0.237027 321.346 0.192014 320.886 0.154019L320.828 0.149228C307.904 -0.902621 294.628 3.6062 284.741 13.6718C272.122 26.5238 268.648 45.1534 273.901 61.3967L262.233 73.2793C259.49 70.9998 257.61 67.6972 257.194 63.9109L255.448 48.2509C255.084 44.9847 252.686 42.3107 249.479 41.5953C242.133 39.9565 234.636 39.0868 227.109 39C219.396 39.0887 211.891 39.9582 204.536 41.5943C201.327 42.3081 198.926 44.9831 198.562 48.2509L196.818 63.8989C196.317 68.3767 193.72 72.3549 189.82 74.6174C185.903 76.9062 181.153 77.1802 177.021 75.3665L162.661 69.0571C159.674 67.7446 156.184 68.4602 153.954 70.8423C143.575 81.9297 135.845 95.2273 131.346 109.734C130.375 112.865 131.494 116.266 134.133 118.209L146.874 127.588C150.511 130.26 152.655 134.498 152.655 139.005C152.655 143.512 150.511 147.75 146.879 150.419L134.13 159.814C131.494 161.755 130.377 165.153 131.344 168.28C135.835 182.8 143.561 196.113 153.94 207.215C156.168 209.598 159.657 210.316 162.644 209.007L177.068 202.687C181.18 200.891 185.911 201.154 189.806 203.4C193.702 205.647 196.301 209.609 196.81 214.077L198.541 229.712C198.898 232.941 201.245 235.597 204.405 236.349C219.258 239.884 234.733 239.884 249.585 236.349C252.745 235.597 255.092 232.941 255.449 229.712L257.183 214.054C257.679 209.577 260.273 205.602 264.172 203.349C268.072 201.095 272.809 200.83 276.935 202.636L291.356 208.955C294.343 210.265 297.831 209.547 300.058 207.166C310.431 196.076 318.157 182.78 322.654 168.275C323.625 165.146 322.507 161.746 319.87 159.803L307.129 150.415C303.489 147.74 301.345 143.502 301.345 138.995C301.345 134.487 303.489 130.249 307.121 127.581L319.852 118.195C322.487 116.252 323.604 112.852 322.634 109.724C321.227 105.188 319.504 100.769 317.483 96.5C316.959 95.3926 316.414 94.2952 315.85 93.2084C328.013 93.6202 340.279 89.1659 349.572 79.7021C359.473 69.6184 363.898 56.0703 362.849 42.8912ZM300.495 77.3904L299.375 77.0101L259.172 117.953C256.013 113.128 251.798 109.057 246.856 106.067L287.555 64.6189L285.319 57.7043C281.328 45.363 284.062 31.4916 293.303 22.0805L293.304 22.0793C297.525 17.7816 302.566 14.8623 307.902 13.3134L293.527 27.9528L299.525 64.6138L333.968 69.7149L350.079 54.7512C348.667 60.8328 345.635 66.5839 341.01 71.2945C331.696 80.7796 318.326 83.4446 306.514 79.4339L303.407 78.3793L301.345 76.5547L300.495 77.3904ZM298.944 94.5768C301.811 99.1898 304.234 104.074 306.176 109.165L298.004 115.19C290.437 120.75 285.963 129.592 285.963 138.995C285.963 148.397 290.437 157.239 298.013 162.806L306.196 168.836C302.909 177.457 298.242 185.485 292.378 192.608L283.104 188.544C274.495 184.775 264.61 185.327 256.476 190.029C248.342 194.731 242.929 203.022 241.895 212.361L240.778 222.452C231.655 224.004 222.335 224.004 213.213 222.452L212.095 212.36C211.032 203.018 205.612 194.755 197.488 190.071C189.364 185.387 179.499 184.838 170.905 188.591L161.623 192.658C155.754 185.524 151.086 177.482 147.801 168.849L155.995 162.811C163.563 157.25 168.037 148.407 168.037 139.005C168.037 129.602 163.563 120.76 155.987 115.193L147.806 109.171C151.093 100.552 155.761 92.5256 161.626 85.4059L170.837 89.4532C179.48 93.2466 189.412 92.6737 197.559 87.9133C205.656 83.2157 211.06 74.9353 212.104 65.6071L213.221 55.5849C217.813 54.8403 222.455 54.4384 227.112 54.3836C231.626 54.4372 236.22 54.838 240.789 55.5816L241.905 65.6035C242.722 73.0338 246.249 79.5718 251.437 84.2749L234.705 101.314C232.21 100.805 229.627 100.538 226.981 100.538C205.744 100.538 188.527 117.758 188.527 139C188.527 160.241 205.744 177.462 226.981 177.462C248.219 177.462 265.435 160.241 265.435 139C265.435 135.838 265.054 132.764 264.334 129.824L298.944 94.5768ZM205.179 131.429C207.435 124.929 212.515 119.749 218.95 117.359L205.967 130.582C205.695 130.858 205.433 131.141 205.179 131.429ZM249.202 145.234C247.06 152.886 241.075 158.931 233.459 161.155C233.912 160.768 234.352 160.357 234.778 159.923L249.202 145.234ZM238.879 138.619L247.957 129.375C245.497 124.021 241.05 119.772 235.56 117.571L226.762 126.531C232.452 128.494 236.892 133.007 238.879 138.619ZM212.735 145.249C212.735 149.545 216.157 153.03 220.376 153.03C224.594 153.03 228.016 149.545 228.016 145.249C228.016 140.95 224.594 137.468 220.376 137.468C216.157 137.468 212.735 140.95 212.735 145.249Z" fill="#16CB88"/>
<path d="M246.5 105.717L235.204 117.221L235.917 117.921L247.213 106.417L246.5 105.717ZM248.314 129.725L259.529 118.303L258.815 117.603L247.6 129.024L248.314 129.725ZM362.844 42.8308L363.841 42.7507L363.841 42.7503L362.844 42.8308ZM362.849 42.8912L363.846 42.8119L363.846 42.811L362.849 42.8912ZM362.735 41.6603L363.73 41.5553L363.73 41.5552L362.735 41.6603ZM362.644 40.8597L363.636 40.7379L363.636 40.7379L362.644 40.8597ZM361.641 35.3717L360.669 35.6084L360.67 35.6089L361.641 35.3717ZM355.236 33.5853L355.916 34.318L355.933 34.3023L355.949 34.2859L355.236 33.5853ZM330.025 57L329.878 57.9892L330.353 58.0596L330.705 57.7327L330.025 57ZM309.952 54.0272L308.965 54.1887L309.083 54.9094L309.806 55.0164L309.952 54.0272ZM306.352 32.0193L305.638 31.3187L305.283 31.6804L305.365 32.1807L306.352 32.0193ZM325.071 12.9557L324.36 12.2524L324.357 12.2551L325.071 12.9557ZM325.073 12.9529L325.784 13.6562L325.787 13.6535L325.073 12.9529ZM330.025 7.91043L329.311 7.2098L329.311 7.2098L330.025 7.91043ZM328.223 1.3742L328.468 0.404795L328.468 0.404598L328.223 1.3742ZM322.263 0.28909L322.15 1.2827L322.15 1.2827L322.263 0.28909ZM320.886 0.154019L320.969 -0.842579L320.968 -0.842644L320.886 0.154019ZM320.828 0.149228L320.909 -0.847435L320.909 -0.847476L320.828 0.149228ZM284.741 13.6718L284.028 12.9711L284.028 12.9712L284.741 13.6718ZM273.901 61.3967L274.615 62.0973L275.039 61.6652L274.853 61.089L273.901 61.3967ZM262.233 73.2793L261.594 74.0485L262.302 74.6366L262.947 73.98L262.233 73.2793ZM257.194 63.9109L258.188 63.8016L258.188 63.8002L257.194 63.9109ZM255.448 48.2509L256.442 48.1401L256.442 48.1401L255.448 48.2509ZM249.479 41.5953L249.697 40.6193L249.697 40.6193L249.479 41.5953ZM227.109 39L227.121 38.0001L227.11 37.9999L227.098 38.0001L227.109 39ZM204.536 41.5943L204.318 40.6181L204.318 40.6181L204.536 41.5943ZM198.562 48.2509L197.568 48.1401L197.568 48.1401L198.562 48.2509ZM196.818 63.8989L197.812 64.0102L197.812 64.0097L196.818 63.8989ZM189.82 74.6174L189.318 73.7525L189.316 73.754L189.82 74.6174ZM177.021 75.3665L176.619 76.282L176.619 76.2821L177.021 75.3665ZM162.661 69.0571L162.259 69.9726L162.259 69.9726L162.661 69.0571ZM153.954 70.8423L154.684 71.5258L154.684 71.5257L153.954 70.8423ZM131.346 109.734L130.391 109.438L130.391 109.438L131.346 109.734ZM134.133 118.209L134.726 117.404L134.726 117.404L134.133 118.209ZM146.874 127.588L146.282 128.393L146.282 128.394L146.874 127.588ZM146.879 150.419L146.287 149.613L146.286 149.614L146.879 150.419ZM134.13 159.814L134.723 160.619L134.723 160.619L134.13 159.814ZM131.344 168.28L132.299 167.985L132.299 167.985L131.344 168.28ZM153.94 207.215L154.671 206.532L154.671 206.532L153.94 207.215ZM162.644 209.007L162.243 208.091L162.243 208.091L162.644 209.007ZM177.068 202.687L176.668 201.77L176.667 201.771L177.068 202.687ZM189.806 203.4L189.307 204.267L189.307 204.267L189.806 203.4ZM196.81 214.077L197.803 213.967L197.803 213.964L196.81 214.077ZM198.541 229.712L197.547 229.822L197.547 229.822L198.541 229.712ZM204.405 236.349L204.636 235.376L204.636 235.376L204.405 236.349ZM249.585 236.349L249.354 235.376L249.353 235.376L249.585 236.349ZM255.449 229.712L256.443 229.822L256.443 229.822L255.449 229.712ZM257.183 214.054L258.177 214.164L258.177 214.164L257.183 214.054ZM264.172 203.349L264.672 204.215L264.672 204.215L264.172 203.349ZM276.935 202.636L277.337 201.72L277.336 201.72L276.935 202.636ZM291.356 208.955L291.758 208.039L291.757 208.039L291.356 208.955ZM300.058 207.166L299.328 206.482L299.328 206.482L300.058 207.166ZM322.654 168.275L323.61 168.571L323.61 168.571L322.654 168.275ZM319.87 159.803L319.277 160.608L319.277 160.608L319.87 159.803ZM307.129 150.415L307.723 149.61L307.722 149.609L307.129 150.415ZM307.121 127.581L307.713 128.387L307.715 128.386L307.121 127.581ZM319.852 118.195L320.445 119L320.445 119L319.852 118.195ZM322.634 109.724L323.589 109.428L323.589 109.428L322.634 109.724ZM317.483 96.5L318.387 96.0721L318.387 96.0721L317.483 96.5ZM315.85 93.2084L315.884 92.2089L314.175 92.1511L314.963 93.669L315.85 93.2084ZM349.572 79.7021L348.858 79.0014L348.858 79.0014L349.572 79.7021ZM300.495 77.3904L300.174 78.3373L300.757 78.5354L301.196 78.1034L300.495 77.3904ZM299.375 77.0101L299.697 76.0632L299.102 75.8613L298.662 76.3095L299.375 77.0101ZM259.172 117.953L258.336 118.501L259.016 119.54L259.886 118.654L259.172 117.953ZM246.856 106.067L246.143 105.366L245.257 106.268L246.339 106.923L246.856 106.067ZM287.555 64.6189L288.269 65.3196L288.693 64.8874L288.507 64.3112L287.555 64.6189ZM285.319 57.7043L284.368 58.012L284.368 58.012L285.319 57.7043ZM293.303 22.0805L292.595 21.3734L292.589 21.3799L293.303 22.0805ZM293.304 22.0793L294.011 22.7865L294.017 22.7801L293.304 22.0793ZM307.902 13.3134L308.615 14.014L311.292 11.2878L307.623 12.353L307.902 13.3134ZM293.527 27.9528L292.813 27.2521L292.458 27.6139L292.54 28.1142L293.527 27.9528ZM299.525 64.6138L298.538 64.7752L298.656 65.496L299.378 65.603L299.525 64.6138ZM333.968 69.7149L333.822 70.7041L334.297 70.7745L334.649 70.4476L333.968 69.7149ZM350.079 54.7512L351.054 54.9775L351.793 51.7953L349.399 54.0185L350.079 54.7512ZM341.01 71.2945L340.296 70.5939L340.296 70.5939L341.01 71.2945ZM306.514 79.4339L306.192 80.3808L306.192 80.3808L306.514 79.4339ZM303.407 78.3793L302.745 79.1283L302.896 79.2615L303.086 79.3262L303.407 78.3793ZM301.345 76.5547L302.007 75.8057L301.309 75.1878L300.644 75.8417L301.345 76.5547ZM298.944 94.5768L299.793 94.0489L299.122 92.9684L298.23 93.8761L298.944 94.5768ZM306.176 109.165L306.769 109.97L307.381 109.519L307.11 108.809L306.176 109.165ZM298.004 115.19L298.596 115.995L298.597 115.995L298.004 115.19ZM298.013 162.806L298.606 162.001L298.605 162.001L298.013 162.806ZM306.196 168.836L307.131 169.193L307.401 168.482L306.789 168.031L306.196 168.836ZM292.378 192.608L291.977 193.523L292.67 193.827L293.15 193.243L292.378 192.608ZM283.104 188.544L283.506 187.628L283.505 187.628L283.104 188.544ZM256.476 190.029L256.976 190.895L256.976 190.895L256.476 190.029ZM241.895 212.361L242.889 212.472L242.889 212.471L241.895 212.361ZM240.778 222.452L240.945 223.438L241.688 223.311L241.771 222.562L240.778 222.452ZM213.213 222.452L212.219 222.562L212.302 223.311L213.045 223.438L213.213 222.452ZM212.095 212.36L213.089 212.25L213.089 212.247L212.095 212.36ZM197.488 190.071L197.988 189.205L197.988 189.205L197.488 190.071ZM170.905 188.591L170.504 187.675L170.503 187.675L170.905 188.591ZM161.623 192.658L160.851 193.293L161.332 193.877L162.024 193.574L161.623 192.658ZM147.801 168.849L147.208 168.043L146.596 168.494L146.866 169.204L147.801 168.849ZM155.995 162.811L155.402 162.005L155.401 162.006L155.995 162.811ZM155.987 115.193L155.394 115.998L155.394 115.999L155.987 115.193ZM147.806 109.171L146.871 108.815L146.6 109.526L147.213 109.977L147.806 109.171ZM161.626 85.4059L162.028 84.4903L161.335 84.1859L160.854 84.7701L161.626 85.4059ZM170.837 89.4532L170.435 90.3687L170.436 90.3688L170.837 89.4532ZM197.559 87.9133L197.057 87.0483L197.054 87.0499L197.559 87.9133ZM212.104 65.6071L213.098 65.7183L213.098 65.7178L212.104 65.6071ZM213.221 55.5849L213.061 54.5978L212.311 54.7193L212.227 55.4741L213.221 55.5849ZM227.112 54.3836L227.123 53.3837L227.112 53.3836L227.1 53.3837L227.112 54.3836ZM240.789 55.5816L241.783 55.4708L241.699 54.7165L240.949 54.5946L240.789 55.5816ZM241.905 65.6035L242.9 65.4942L242.899 65.4927L241.905 65.6035ZM251.437 84.2749L252.15 84.9756L252.879 84.233L252.108 83.534L251.437 84.2749ZM234.705 101.314L234.505 102.294L235.038 102.403L235.419 102.015L234.705 101.314ZM264.334 129.824L263.62 129.123L263.23 129.52L263.363 130.061L264.334 129.824ZM218.95 117.359L219.664 118.06L218.602 116.422L218.95 117.359ZM205.179 131.429L204.235 131.101L205.93 132.089L205.179 131.429ZM205.967 130.582L205.253 129.881L205.253 129.881L205.967 130.582ZM233.459 161.155L232.809 160.395L233.74 162.115L233.459 161.155ZM249.202 145.234L250.165 145.504L248.488 144.534L249.202 145.234ZM234.778 159.923L234.065 159.223L234.065 159.223L234.778 159.923ZM247.957 129.375L248.67 130.075L249.153 129.583L248.866 128.957L247.957 129.375ZM238.879 138.619L237.937 138.953L238.471 140.462L239.593 139.32L238.879 138.619ZM235.56 117.571L235.932 116.643L235.314 116.395L234.847 116.87L235.56 117.571ZM226.762 126.531L226.049 125.83L224.94 126.96L226.436 127.476L226.762 126.531ZM361.848 42.911L361.853 42.9713L363.846 42.811L363.841 42.7507L361.848 42.911ZM361.741 41.7653C361.781 42.1471 361.817 42.5291 361.848 42.9114L363.841 42.7503C363.809 42.3515 363.772 41.9532 363.73 41.5553L361.741 41.7653ZM361.651 40.9815C361.683 41.2426 361.713 41.5039 361.741 41.7654L363.73 41.5552C363.701 41.2825 363.67 41.0101 363.636 40.7379L361.651 40.9815ZM360.67 35.6089C361.102 37.3818 361.43 39.1761 361.651 40.9816L363.636 40.7379C363.405 38.8552 363.064 36.9838 362.612 35.1345L360.67 35.6089ZM355.949 34.2859C357.49 32.7164 360.14 33.4364 360.669 35.6084L362.613 35.135C361.715 31.4516 357.171 30.1874 354.522 32.8846L355.949 34.2859ZM309.806 55.0164L329.878 57.9892L330.171 56.0108L310.099 53.038L309.806 55.0164ZM305.365 32.1807L308.965 54.1887L310.939 53.8658L307.339 31.8578L305.365 32.1807ZM324.357 12.2551L305.638 31.3187L307.065 32.7199L325.784 13.6563L324.357 12.2551ZM324.363 12.2496L324.36 12.2524L325.782 13.659L325.784 13.6562L324.363 12.2496ZM327.977 2.34361C330.114 2.88452 330.885 5.60738 329.311 7.2098L330.738 8.61106C333.38 5.92087 332.12 1.32935 328.468 0.404795L327.977 2.34361ZM322.15 1.2827C324.109 1.50516 326.056 1.85885 327.978 2.34381L328.468 0.404598C326.459 -0.102328 324.423 -0.472019 322.376 -0.704523L322.15 1.2827ZM320.804 1.15062C321.253 1.18777 321.702 1.23179 322.15 1.2827L322.376 -0.704521C321.907 -0.757738 321.438 -0.803746 320.969 -0.842579L320.804 1.15062ZM320.746 1.14589L320.805 1.15068L320.968 -0.842644L320.909 -0.847435L320.746 1.14589ZM285.455 14.3725C295.127 4.52517 308.109 0.11738 320.747 1.14593L320.909 -0.847476C307.699 -1.92262 294.129 2.68722 284.028 12.9711L285.455 14.3725ZM274.853 61.089C269.705 45.1708 273.117 26.9377 285.455 14.3724L284.028 12.9712C271.127 26.1099 267.592 45.136 272.95 61.7044L274.853 61.089ZM262.947 73.98L274.615 62.0973L273.188 60.6961L261.52 72.5787L262.947 73.98ZM262.873 72.5102C260.321 70.3904 258.575 67.3213 258.188 63.8016L256.2 64.0202C256.645 68.0731 258.659 71.6092 261.594 74.0485L262.873 72.5102ZM258.188 63.8002L256.442 48.1401L254.455 48.3616L256.2 64.0217L258.188 63.8002ZM256.442 48.1401C256.031 44.4495 253.321 41.4277 249.697 40.6193L249.262 42.5713C252.051 43.1936 254.138 45.52 254.455 48.3617L256.442 48.1401ZM249.697 40.6193C242.283 38.9654 234.717 38.0876 227.121 38.0001L227.098 39.9999C234.555 40.0859 241.983 40.9476 249.262 42.5713L249.697 40.6193ZM227.098 38.0001C219.316 38.0896 211.742 38.9668 204.318 40.6181L204.753 42.5704C212.04 40.9495 219.476 40.0879 227.121 39.9999L227.098 38.0001ZM204.318 40.6181C200.692 41.4248 197.979 44.4476 197.568 48.1401L199.556 48.3617C199.873 45.5186 201.961 43.1914 204.753 42.5704L204.318 40.6181ZM197.568 48.1401L195.824 63.7882L197.812 64.0097L199.556 48.3616L197.568 48.1401ZM195.824 63.7877C195.358 67.9503 192.944 71.6489 189.318 73.7525L190.322 75.4824C194.496 73.0608 197.275 68.803 197.812 64.0102L195.824 63.7877ZM189.316 73.754C185.674 75.8818 181.261 76.1355 177.423 74.4508L176.619 76.2821C181.045 78.2249 186.132 77.9307 190.325 75.4808L189.316 73.754ZM177.424 74.4509L163.064 68.1416L162.259 69.9726L176.619 76.282L177.424 74.4509ZM163.064 68.1416C159.688 66.6584 155.744 67.467 153.224 70.159L154.684 71.5257C156.624 69.4533 159.66 68.8308 162.259 69.9726L163.064 68.1416ZM153.224 70.1589C142.741 81.3567 134.935 94.7867 130.391 109.438L132.301 110.031C136.755 95.6679 144.408 82.5028 154.684 71.5258L153.224 70.1589ZM130.391 109.438C129.294 112.975 130.558 116.819 133.54 119.014L134.726 117.404C132.43 115.714 131.456 112.754 132.301 110.031L130.391 109.438ZM133.54 119.014L146.282 128.393L147.467 126.783L134.726 117.404L133.54 119.014ZM146.282 128.394C149.662 130.877 151.655 134.816 151.655 139.005H153.655C153.655 134.179 151.359 129.642 147.466 126.782L146.282 128.394ZM151.655 139.005C151.655 143.194 149.662 147.133 146.287 149.613L147.471 151.225C151.359 148.367 153.655 143.83 153.655 139.005H151.655ZM146.286 149.614L133.536 159.009L134.723 160.619L147.472 151.224L146.286 149.614ZM133.537 159.009C130.559 161.203 129.296 165.042 130.389 168.576L132.299 167.985C131.458 165.264 132.43 162.308 134.723 160.619L133.537 159.009ZM130.389 168.576C134.925 183.24 142.728 196.686 153.21 207.898L154.671 206.532C144.395 195.541 136.746 182.36 132.299 167.985L130.389 168.576ZM153.21 207.898C155.727 210.591 159.669 211.403 163.046 209.922L162.243 208.091C159.644 209.23 156.609 208.606 154.671 206.532L153.21 207.898ZM163.045 209.923L177.47 203.603L176.667 201.771L162.243 208.091L163.045 209.923ZM177.468 203.603C181.289 201.934 185.686 202.179 189.307 204.267L190.306 202.534C186.136 200.13 181.071 199.847 176.668 201.77L177.468 203.603ZM189.307 204.267C192.928 206.354 195.343 210.037 195.816 214.19L197.803 213.964C197.259 209.18 194.477 204.939 190.306 202.534L189.307 204.267ZM195.816 214.187L197.547 229.822L199.535 229.602L197.803 213.967L195.816 214.187ZM197.547 229.822C197.951 233.471 200.603 236.472 204.173 237.322L204.636 235.376C201.888 234.722 199.846 232.411 199.535 229.602L197.547 229.822ZM204.173 237.322C219.178 240.893 234.812 240.893 249.816 237.322L249.353 235.376C234.653 238.875 219.337 238.875 204.636 235.376L204.173 237.322ZM249.816 237.322C253.388 236.472 256.039 233.471 256.443 229.822L254.456 229.602C254.144 232.411 252.103 234.722 249.354 235.376L249.816 237.322ZM256.443 229.822L258.177 214.164L256.19 213.944L254.456 229.602L256.443 229.822ZM258.177 214.164C258.638 210.003 261.049 206.309 264.672 204.215L263.671 202.483C259.497 204.896 256.72 209.151 256.19 213.944L258.177 214.164ZM264.672 204.215C268.297 202.12 272.699 201.874 276.534 203.552L277.336 201.72C272.919 199.787 267.846 200.07 263.671 202.483L264.672 204.215ZM276.534 203.552L290.955 209.871L291.757 208.039L277.337 201.72L276.534 203.552ZM290.955 209.871C294.33 211.351 298.271 210.54 300.788 207.849L299.328 206.482C297.39 208.554 294.356 209.179 291.758 208.039L290.955 209.871ZM300.788 207.849C311.265 196.649 319.067 183.22 323.61 168.571L321.699 167.979C317.247 182.339 309.598 195.504 299.328 206.482L300.788 207.849ZM323.61 168.571C324.706 165.035 323.443 161.194 320.464 158.998L319.277 160.608C321.571 162.298 322.543 165.256 321.699 167.979L323.61 168.571ZM320.464 158.998L307.723 149.61L306.536 151.22L319.277 160.608L320.464 158.998ZM307.722 149.609C304.337 147.122 302.345 143.183 302.345 138.995H300.345C300.345 143.82 302.641 148.357 306.537 151.221L307.722 149.609ZM302.345 138.995C302.345 134.805 304.338 130.867 307.713 128.387L306.529 126.775C302.64 129.632 300.345 134.169 300.345 138.995H302.345ZM307.715 128.386L320.445 119L319.259 117.39L306.528 126.776L307.715 128.386ZM320.445 119C323.423 116.804 324.685 112.963 323.589 109.428L321.679 110.02C322.523 112.742 321.551 115.7 319.258 117.39L320.445 119ZM323.589 109.428C322.168 104.846 320.428 100.384 318.387 96.0721L316.579 96.9279C318.58 101.155 320.286 105.529 321.679 110.02L323.589 109.428ZM318.387 96.0721C317.857 94.9537 317.308 93.8454 316.738 92.7477L314.963 93.669C315.521 94.745 316.06 95.8315 316.579 96.9279L318.387 96.0721ZM348.858 79.0014C339.77 88.2571 327.779 92.6117 315.884 92.2089L315.816 94.2078C328.248 94.6287 340.788 90.0746 350.286 80.4027L348.858 79.0014ZM361.852 42.9705C362.879 55.8762 358.546 69.1352 348.858 79.0014L350.286 80.4027C360.4 70.1016 364.917 56.2643 363.846 42.8119L361.852 42.9705ZM300.817 76.4435L299.697 76.0632L299.054 77.957L300.174 78.3373L300.817 76.4435ZM260.009 117.405C256.767 112.456 252.444 108.279 247.374 105.211L246.339 106.923C251.152 109.835 255.258 113.801 258.336 118.501L260.009 117.405ZM288.507 64.3112L286.271 57.3966L284.368 58.012L286.604 64.9266L288.507 64.3112ZM286.271 57.3966C282.385 45.3817 285.057 31.9064 294.016 22.7811L292.589 21.3799C283.068 31.0769 280.271 45.3443 284.368 58.012L286.271 57.3966ZM294.01 22.7876L294.011 22.7865L292.597 21.3722L292.596 21.3734L294.01 22.7876ZM294.017 22.7801C298.117 18.6063 303.007 15.7755 308.18 14.2737L307.623 12.353C302.125 13.9491 296.934 16.9568 292.59 21.3786L294.017 22.7801ZM349.105 54.525C347.733 60.4342 344.788 66.0193 340.296 70.5939L341.723 71.9951C346.482 67.1485 349.601 61.2313 351.054 54.9775L349.105 54.525ZM340.296 70.5939C331.264 79.792 318.301 82.3801 306.835 78.487L306.192 80.3808C318.35 84.509 332.128 81.7672 341.723 71.9951L340.296 70.5939ZM306.835 78.487L303.729 77.4324L303.086 79.3262L306.192 80.3808L306.835 78.487ZM304.07 77.6303L302.007 75.8057L300.682 77.3038L302.745 79.1283L304.07 77.6303ZM300.644 75.8417L299.794 76.6773L301.196 78.1034L302.046 77.2678L300.644 75.8417ZM298.095 95.1046C300.928 99.6634 303.323 104.49 305.241 109.522L307.11 108.809C305.146 103.658 302.694 98.7161 299.793 94.0489L298.095 95.1046ZM305.582 108.36L297.411 114.385L298.597 115.995L306.769 109.97L305.582 108.36ZM297.412 114.384C289.589 120.133 284.963 129.274 284.963 138.995H286.963C286.963 129.91 291.286 121.367 298.596 115.995L297.412 114.384ZM284.963 138.995C284.963 148.715 289.589 157.857 297.421 163.612L298.605 162.001C291.286 156.622 286.963 148.079 286.963 138.995H284.963ZM297.42 163.612L305.603 169.641L306.789 168.031L298.606 162.001L297.42 163.612ZM305.262 168.48C302.013 176.999 297.401 184.934 291.606 191.972L293.15 193.243C299.083 186.037 303.804 177.914 307.131 169.193L305.262 168.48ZM292.78 191.692L283.506 187.628L282.703 189.46L291.977 193.523L292.78 191.692ZM283.505 187.628C274.605 183.731 264.385 184.302 255.975 189.163L256.976 190.895C264.835 186.352 274.385 185.818 282.703 189.46L283.505 187.628ZM255.975 189.163C247.566 194.024 241.97 202.596 240.901 212.251L242.889 212.471C243.888 203.448 249.118 195.437 256.976 190.895L255.975 189.163ZM240.901 212.251L239.784 222.342L241.771 222.562L242.889 212.472L240.901 212.251ZM240.61 221.466C231.599 222.999 222.392 222.999 213.38 221.466L213.045 223.438C222.278 225.008 231.712 225.008 240.945 223.438L240.61 221.466ZM214.207 222.342L213.089 212.25L211.101 212.47L212.219 222.562L214.207 222.342ZM213.089 212.247C211.989 202.59 206.387 194.048 197.988 189.205L196.989 190.937C204.838 195.463 210.074 203.446 211.101 212.474L213.089 212.247ZM197.988 189.205C189.588 184.362 179.389 183.795 170.504 187.675L171.305 189.508C179.608 185.882 189.139 186.412 196.989 190.937L197.988 189.205ZM170.503 187.675L161.222 191.742L162.024 193.574L171.306 189.507L170.503 187.675ZM162.395 192.023C156.596 184.973 151.982 177.025 148.735 168.493L146.866 169.204C150.19 177.939 154.913 186.076 160.851 193.293L162.395 192.023ZM148.394 169.654L156.588 163.616L155.401 162.006L147.208 168.043L148.394 169.654ZM156.587 163.616C164.411 157.867 169.037 148.725 169.037 139.005H167.037C167.037 148.09 162.714 156.632 155.402 162.005L156.587 163.616ZM169.037 139.005C169.037 129.284 164.411 120.143 156.579 114.387L155.394 115.999C162.714 121.378 167.037 129.92 167.037 139.005H169.037ZM156.579 114.388L148.398 108.366L147.213 109.977L155.394 115.998L156.579 114.388ZM148.74 109.528C151.989 101.01 156.602 93.0777 162.398 86.0417L160.854 84.7701C154.921 91.9735 150.198 100.095 146.871 108.815L148.74 109.528ZM161.224 86.3214L170.435 90.3687L171.24 88.5376L162.028 84.4903L161.224 86.3214ZM170.436 90.3688C179.371 94.2909 189.64 93.6986 198.063 88.7767L197.054 87.0499C189.184 91.6488 179.589 92.2023 171.239 88.5375L170.436 90.3688ZM198.061 88.7782C206.432 83.9214 212.019 75.3611 213.098 65.7183L211.11 65.4958C210.102 74.5095 204.879 82.51 197.057 87.0483L198.061 88.7782ZM213.098 65.7178L214.215 55.6956L212.227 55.4741L211.11 65.4963L213.098 65.7178ZM213.381 56.572C217.924 55.8354 222.517 55.4377 227.123 55.3836L227.1 53.3837C222.394 53.439 217.702 53.8453 213.061 54.5978L213.381 56.572ZM227.1 55.3836C231.563 55.4365 236.108 55.8329 240.628 56.5686L240.949 54.5946C236.333 53.8431 231.688 53.4378 227.123 53.3837L227.1 55.3836ZM239.795 55.6923L240.912 65.7142L242.899 65.4927L241.783 55.4708L239.795 55.6923ZM240.911 65.7127C241.755 73.3944 245.402 80.1544 250.765 85.0158L252.108 83.534C247.095 78.9892 243.688 72.6733 242.9 65.4942L240.911 65.7127ZM235.419 102.015L252.15 84.9756L250.723 83.5743L233.992 100.614L235.419 102.015ZM226.981 101.538C229.559 101.538 232.076 101.798 234.505 102.294L234.905 100.334C232.344 99.8121 229.694 99.5381 226.981 99.5381V101.538ZM189.527 139C189.527 118.31 206.296 101.538 226.981 101.538V99.5381C205.191 99.5381 187.527 117.206 187.527 139H189.527ZM226.981 176.462C206.296 176.462 189.527 159.689 189.527 139H187.527C187.527 160.793 205.191 178.462 226.981 178.462V176.462ZM264.435 139C264.435 159.689 247.667 176.462 226.981 176.462V178.462C248.772 178.462 266.435 160.793 266.435 139H264.435ZM263.363 130.061C264.063 132.925 264.435 135.918 264.435 139H266.435C266.435 135.757 266.044 132.604 265.305 129.586L263.363 130.061ZM298.23 93.8761L263.62 129.123L265.047 130.524L299.657 95.2774L298.23 93.8761ZM218.602 116.422C211.888 118.916 206.589 124.319 204.235 131.101L206.124 131.757C208.282 125.539 213.143 120.583 219.298 118.297L218.602 116.422ZM206.68 131.282L219.664 118.06L218.237 116.659L205.253 129.881L206.68 131.282ZM205.93 132.089C206.172 131.815 206.421 131.546 206.68 131.282L205.253 129.881C204.969 130.171 204.694 130.467 204.428 130.769L205.93 132.089ZM233.74 162.115C241.686 159.794 247.93 153.488 250.165 145.504L248.239 144.965C246.191 152.283 240.463 158.068 233.179 160.195L233.74 162.115ZM234.065 159.223C233.659 159.636 233.24 160.027 232.809 160.395L234.109 161.915C234.584 161.509 235.046 161.078 235.492 160.624L234.065 159.223ZM248.488 144.534L234.065 159.223L235.492 160.624L249.915 145.935L248.488 144.534ZM247.243 128.674L238.166 137.919L239.593 139.32L248.67 130.075L247.243 128.674ZM235.188 118.499C240.439 120.604 244.695 124.671 247.048 129.792L248.866 128.957C246.3 123.372 241.661 118.939 235.932 116.643L235.188 118.499ZM227.476 127.231L236.274 118.271L234.847 116.87L226.049 125.83L227.476 127.231ZM239.822 138.286C237.736 132.394 233.074 127.651 227.089 125.585L226.436 127.476C231.831 129.338 236.049 133.62 237.937 138.953L239.822 138.286ZM220.376 152.03C216.727 152.03 213.735 149.01 213.735 145.249H211.735C211.735 150.08 215.588 154.03 220.376 154.03V152.03ZM227.016 145.249C227.016 149.01 224.025 152.03 220.376 152.03V154.03C225.163 154.03 229.016 150.08 229.016 145.249H227.016ZM220.376 138.468C224.025 138.468 227.016 141.485 227.016 145.249H229.016C229.016 140.415 225.163 136.468 220.376 136.468V138.468ZM213.735 145.249C213.735 141.485 216.727 138.468 220.376 138.468V136.468C215.588 136.468 211.735 140.415 211.735 145.249H213.735ZM330.705 57.7327L355.916 34.318L354.555 32.8525L329.344 56.2673L330.705 57.7327ZM298.662 76.3095L258.459 117.252L259.886 118.654L300.089 77.7108L298.662 76.3095ZM247.57 106.768L288.269 65.3196L286.842 63.9183L246.143 105.366L247.57 106.768ZM307.188 12.6128L292.813 27.2521L294.24 28.6534L308.615 14.014L307.188 12.6128ZM292.54 28.1142L298.538 64.7752L300.512 64.4523L294.514 27.7913L292.54 28.1142ZM299.378 65.603L333.822 70.7041L334.115 68.7257L299.671 63.6246L299.378 65.603ZM334.649 70.4476L350.76 55.484L349.399 54.0185L333.287 68.9822L334.649 70.4476ZM329.311 7.2098L324.36 12.2523L325.787 13.6535L330.738 8.61106L329.311 7.2098Z" fill="#11B176" mask="url(#path-2-inside-1_14_16)"/>
</svg>
